<svg width="30" height="29" viewBox="0 0 30 29" fill="none" xmlns="http://www.w3.org/2000/svg">
<path fill-rule="evenodd" clip-rule="evenodd" d="M29.999 20L30 24.252C30 27.174 28.11 29 24.58 29H4.916C1.89 29 0.001 27.174 0.001 24.252L0 20H0.933C3.136 20 4.995 18.445 4.995 16.418V12.582C4.995 10.555 3.136 9 0.933 9H0V4.748C0 1.826 1.89 0 4.915 0H24.58C27.606 0 30 1.826 30 4.748V9H29.067C26.865 9 25.007 10.555 25.007 12.582V16.152C25.007 18.179 26.866 20 29.067 20H30H29.999ZM22.989 12.563C22.989 8.918 19.852 6 16.029 6H13.972C10.149 6 7.012 8.92 7.012 12.563V19.353C7.012 22.995 10.149 26 13.972 26H16.029C19.852 26 22.989 22.995 22.989 19.352V12.563Z" fill="white"/>
<path fill-rule="evenodd" clip-rule="evenodd" d="M16.143 25H13.846C10.68 25 7.997 22.405 7.997 19.365V12.55C7.997 9.508 10.679 7 13.847 7H16.142C19.309 7 21.992 9.508 21.992 12.55V19.365C21.994 22.405 19.31 25 16.142 25H16.143ZM19.949 12.43C19.949 10.49 18.181 9 15.978 9H13.96C11.758 9 9.99001 10.49 9.99001 12.43V16.57C9.99001 18.51 11.758 20 13.96 20H15.978C18.181 20 19.949 18.51 19.949 16.57V12.43Z" fill="white"/>
<path fill-rule="evenodd" clip-rule="evenodd" d="M14.51 19H14.4C12.37 19 10.99 17.926 10.99 15.828V14.54C10.99 14.54 10.983 14 11.473 14C11.963 14 11.963 14.54 11.963 14.54V15.828C11.963 17.388 12.908 18.023 14.4 18.023H14.51C14.51 18.023 14.989 18.046 14.989 18.521C14.987 18.995 14.509 19 14.509 19H14.51Z" fill="white"/>
</svg>
