<svg width="64" height="64" viewBox="0 0 64 64" fill="none" xmlns="http://www.w3.org/2000/svg">
<g id="Group">
<path id="backgroundColor" fill-rule="evenodd" clip-rule="evenodd" d="M0 32C0 14.3269 14.3269 0 32 0C49.6731 0 64 14.3269 64 32C64 49.6731 49.6731 64 32 64C14.3269 64 0 49.6731 0 32Z" fill="#E2F8FF"/>
<g id="2">
<path id="Shape" fill-rule="evenodd" clip-rule="evenodd" d="M20 32C20 38.627 25.373 44 32 44C38.627 44 44 38.627 44 32C44 25.373 38.627 20 32 20C25.373 20 20 25.373 20 32ZM42 32C42 37.523 37.523 42 32 42C26.477 42 22 37.523 22 32C22 26.477 26.477 22 32 22C37.523 22 42 26.477 42 32Z" fill="#93E5FF"/>
<path id="Shape_2" fill-rule="evenodd" clip-rule="evenodd" d="M32.633 13.898C32.282 12.847 31.717 12.85 31.367 13.898L29 21H35L32.633 13.898ZM32.633 50.102C32.282 51.153 31.717 51.15 31.367 50.102L29 43H35L32.633 50.102ZM49.602 31.867C50.65 32.217 50.653 32.782 49.602 33.133L42.5 35.5V29.5L49.602 31.867ZM14.398 33.133C13.347 32.782 13.35 32.217 14.398 31.867L21.5 29.5V35.5L14.398 33.133Z" fill="#93E5FF"/>
<path id="Shape_3" fill-rule="evenodd" clip-rule="evenodd" d="M45.805 18.847C46.378 17.917 46.09 17.618 45.153 18.1949L28.465 28.464L18.1949 45.153C17.6219 46.0829 17.91 46.382 18.847 45.806L35.535 35.5359L45.805 18.847ZM32.5184 33.9321C31.8281 34.1172 31.0915 33.9202 30.586 33.415C29.8045 32.634 29.8041 31.3674 30.585 30.586C31.3659 29.8045 32.6325 29.8041 33.414 30.585C33.9195 31.0901 34.1171 31.8267 33.9324 32.517C33.7477 33.2074 33.2087 33.7468 32.5184 33.9321Z" fill="#00C2FF"/>
</g>
</g>
</svg>
