<svg width="60" height="60" viewBox="0 0 60 60" fill="none" xmlns="http://www.w3.org/2000/svg">
<path fill-rule="evenodd" clip-rule="evenodd" d="M0 30C0 13.4315 13.4315 0 30 0C46.5685 0 60 13.4315 60 30C60 46.5685 46.5685 60 30 60C13.4315 60 0 46.5685 0 30Z" fill="#E2F8FF"/>
<path d="M16 26H44V42.005C44 43.107 43.1 44 42.009 44H17.99C16.891 44 16 43.107 16 42.005V26Z" fill="#93E5FF"/>
<path fill-rule="evenodd" clip-rule="evenodd" d="M17.991 18C16.9 18 16 18.8979 16 20.0061V25H44V20.0061C44 18.887 43.109 18 42.01 18H17.991ZM27.943 37.582L30 36.5L32.057 37.582C32.543 37.8369 32.864 37.605 32.771 37.063L32.378 34.7729L34.042 33.1499C34.435 32.7668 34.314 32.3909 33.769 32.312L31.469 31.9768L30.441 29.8928C30.199 29.4019 29.803 29.3999 29.559 29.8928L28.531 31.9768L26.231 32.312C25.688 32.3899 25.564 32.7659 25.958 33.1499L27.622 34.7729L27.229 37.063C27.137 37.604 27.456 37.8379 27.943 37.582Z" fill="#00C2FF"/>
<path d="M21 17C21 16.4477 21.4477 16 22 16H23C23.5523 16 24 16.4477 24 17V19C24 19.5523 23.5523 20 23 20H22C21.4477 20 21 19.5523 21 19V17Z" fill="#00C2FF"/>
<path d="M36 17C36 16.4477 36.4477 16 37 16H38C38.5523 16 39 16.4477 39 17V19C39 19.5523 38.5523 20 38 20H37C36.4477 20 36 19.5523 36 19V17Z" fill="#00C2FF"/>
</svg>
