<svg width="22" height="22" viewBox="0 0 22 22" fill="none" xmlns="http://www.w3.org/2000/svg">
<g id="svg">
<path id="Shape" d="M1.7842 4.04902C2.8226 3.21493 4.0942 2.97771 5.4692 3.09823C7.3975 3.26371 9.0508 4.01936 10.6194 4.94145L10.9714 5.15189C11.0187 4.99406 11.0594 4.85919 11.0979 4.72336C11.4411 3.52771 12.0527 2.46789 13.2033 1.69119C14.7763 0.631364 16.7178 0.76719 18.1863 1.76484C16.2129 2.00971 14.8841 3.04371 13.6961 4.38284C14.2901 4.30632 14.7961 4.2298 15.3021 4.17719C16.3284 4.07197 17.3514 4.08345 18.3546 4.3178C20.2246 4.75589 21.2982 5.85206 21.7096 7.44562C21.8636 8.03389 21.9054 8.64319 21.9989 9.24389L21.8999 9.27928C21.7822 9.17119 21.6689 9.0631 21.5479 8.95693C20.2972 7.8378 18.8386 7.02284 17.0357 6.74354C15.9907 6.58093 14.9545 6.61632 13.9579 6.97884C13.8072 7.03241 13.6675 7.10989 13.5267 7.17589C16.0633 7.42458 17.941 8.58962 19.3809 10.297C20.8802 12.0733 20.9462 13.9815 19.7846 15.9233C19.1939 16.9114 18.0796 18.0793 17.105 18.7661C17.0764 18.4313 17.061 18.1118 17.0192 17.7952C16.7475 15.6966 16.1535 13.6793 14.9215 11.8361C14.3429 10.9695 13.618 10.2119 12.5675 9.73554C12.4531 9.68389 12.3343 9.64276 12.1715 9.57867C12.155 9.7365 12.1352 9.86754 12.1297 9.99954C12.0241 12.4702 11.7777 14.9285 11.0924 17.3389C10.7404 18.5824 10.2982 19.8001 9.5414 20.9144C9.5161 20.9527 9.2598 21.2368 9.2598 21.2368C8.8891 21.6538 8.096 21.9895 7.491 21.9876L3.4595 21.9742C2.2451 21.9695 1.969 21.3621 2.8292 20.6227C2.8292 20.6227 3.9072 19.7235 5.0314 18.6685C7.4492 16.3987 8.8616 13.707 9.3764 10.6605C9.4314 10.3315 9.4842 10.0005 9.5491 9.60354C7.4811 10.2377 5.8751 11.3234 4.5683 12.7562C3.2538 14.1987 2.4849 15.8248 2.4266 17.6852C2.3903 17.6775 2.3551 17.6795 2.3386 17.6661C1.2881 16.7191 0.4653 15.6631 0.2178 14.3374C-0.0352 12.9695 0.3652 11.7232 1.276 10.6108C2.706 8.86223 4.6453 7.75076 7.0873 7.31554C7.3106 7.27536 7.5405 7.25815 7.7693 7.24476C7.9926 7.23328 8.2181 7.24284 8.5107 7.24284C8.1202 6.87936 7.6857 6.68615 7.2127 6.56371C6.0555 6.26719 4.906 6.37719 3.7675 6.64023C2.4079 6.95589 1.1605 7.46954 0 8.28354C0.0726 6.65745 0.3795 5.17293 1.7842 4.04615V4.04902Z" fill="#A0B0B9"/>
</g>
</svg>
