<svg width="22" height="22" viewBox="0 0 22 22" fill="none" xmlns="http://www.w3.org/2000/svg">
<g id="svg">
<path id="Shape" fill-rule="evenodd" clip-rule="evenodd" d="M0 11C0 4.92798 4.91699 0 10.989 0C17.072 0 22 4.92798 22 11C22 17.072 17.072 22 10.989 22C4.91699 22 0 17.072 0 11ZM15.367 6.59998H18.612C17.556 4.78491 15.873 3.37695 13.849 2.68396C14.509 3.90491 15.015 5.22498 15.367 6.59998ZM11 2.24402C11.913 3.56396 12.628 5.02698 13.101 6.59998H8.89899C9.37198 5.02698 10.087 3.56396 11 2.24402ZM2.20001 11C2.20001 11.759 2.31 12.4961 2.48602 13.2001H6.20401C6.116 12.474 6.05002 11.748 6.05002 11C6.05002 10.2521 6.116 9.526 6.20401 8.80005H2.48602C2.31 9.50403 2.20001 10.2411 2.20001 11ZM3.388 15.4H6.633C6.98499 16.775 7.491 18.095 8.151 19.316C6.12701 18.623 4.444 17.2261 3.388 15.4ZM3.388 6.59998H6.633C6.98499 5.22498 7.491 3.90491 8.151 2.68396C6.12701 3.37695 4.444 4.77393 3.388 6.59998ZM11 19.756C10.087 18.436 9.37198 16.973 8.89899 15.4H13.101C12.628 16.973 11.913 18.436 11 19.756ZM8.25 11C8.25 11.748 8.327 12.474 8.42599 13.2001H13.574C13.673 12.474 13.75 11.748 13.75 11C13.75 10.2521 13.673 9.51501 13.574 8.80005H8.42599C8.327 9.51501 8.25 10.2521 8.25 11ZM13.849 19.316C14.509 18.095 15.015 16.775 15.367 15.4H18.612C17.556 17.215 15.873 18.623 13.849 19.316ZM15.95 11C15.95 11.748 15.884 12.474 15.796 13.2001H19.514C19.69 12.4961 19.8 11.759 19.8 11C19.8 10.2411 19.69 9.50403 19.514 8.80005H15.796C15.884 9.526 15.95 10.2521 15.95 11Z" fill="#A0B0B9"/>
</g>
</svg>
