<svg width="22" height="22" viewBox="0 0 22 22" fill="none" xmlns="http://www.w3.org/2000/svg">
<g id="svg">
<path id="Shape" fill-rule="evenodd" clip-rule="evenodd" d="M11 0L0 5.23804V6.28577C0 6.86816 0.488403 7.33337 1.09119 7.33337H20.9088C21.4995 7.33337 22 6.86401 22 6.28577V5.23804L11 0ZM5.5 10.4762V15.7144C6.10834 15.7196 6.60004 16.1826 6.60004 16.762C6.60004 17.3402 6.11383 17.8096 5.48901 17.8096H3.31104C2.6972 17.8096 2.20001 17.3444 2.20001 16.762C2.20001 16.1858 2.68182 15.7196 3.29999 15.7144V10.4762C2.69171 10.4709 2.20001 10.0079 2.20001 9.42859C2.20001 8.85034 2.68622 8.38098 3.31104 8.38098H5.48901C6.10278 8.38098 6.60004 8.84607 6.60004 9.42859C6.60004 10.0048 6.11823 10.4709 5.5 10.4762ZM12.1 15.7144V10.4762C12.7182 10.4709 13.2 10.0048 13.2 9.42859C13.2 8.84607 12.7028 8.38098 12.089 8.38098H9.91101C9.28619 8.38098 8.79999 8.85034 8.79999 9.42859C8.79999 10.0079 9.29169 10.4709 9.89996 10.4762V15.7144C9.2818 15.7196 8.79999 16.1858 8.79999 16.762C8.79999 17.3444 9.29718 17.8096 9.91101 17.8096H12.089C12.7127 17.8096 13.2 17.3402 13.2 16.762C13.2 16.1826 12.7083 15.7196 12.1 15.7144ZM18.7 15.7144V10.4762C19.3182 10.4709 19.8 10.0048 19.8 9.42859C19.8 8.84607 19.3028 8.38098 18.689 8.38098H16.511C15.8862 8.38098 15.4 8.85034 15.4 9.42859C15.4 10.0079 15.8917 10.4709 16.5 10.4762V15.7144C15.8818 15.7196 15.4 16.1858 15.4 16.762C15.4 17.3444 15.8972 17.8096 16.511 17.8096H18.689C19.3127 17.8096 19.8 17.3402 19.8 16.762C19.8 16.1826 19.3083 15.7196 18.7 15.7144ZM0 19.9048C0 19.3254 0.500488 18.8572 1.09119 18.8572H20.9088C21.5116 18.8572 22 19.3213 22 19.9048V20.9524C22 21.5317 21.4995 22 20.9088 22H1.09119C0.488403 22 0 21.5359 0 20.9524V19.9048Z" fill="#A0B0B9"/>
</g>
</svg>
