<svg width="22" height="22" viewBox="0 0 22 22" fill="none" xmlns="http://www.w3.org/2000/svg">
<g id="svg">
<path id="Shape" fill-rule="evenodd" clip-rule="evenodd" d="M22 1.22217V2.44446L12.2222 13.4445V19.5555H17.1111C17.7906 19.5555 18.3333 20.1031 18.3333 20.7778C18.3333 21.4573 17.7833 22 17.1086 22H4.89136C4.224 22 3.66669 21.4524 3.66669 20.7778C3.66669 20.0983 4.21423 19.5555 4.88892 19.5555H9.77777V13.4445L0 2.44446V1.22217C0 0.542725 0.543884 0 1.21368 0H20.7863C21.4561 0 22 0.547607 22 1.22217ZM5.05756 3.97839C5.51837 4.4856 6.42523 4.88892 7.09503 4.88892H14.8916C15.554 4.88892 16.4768 4.48193 16.9351 3.97839L18.3334 2.44446H3.66669L5.05756 3.97839Z" fill="#A0B0B9"/>
</g>
</svg>
