<svg width="22" height="22" viewBox="0 0 22 22" fill="none" xmlns="http://www.w3.org/2000/svg">
<g id="svg">
<path id="Shape" fill-rule="evenodd" clip-rule="evenodd" d="M12.7368 8.80005V0C17.8547 0 22 3.93799 22 8.80005H12.7368ZM22 9.8999C22 11.924 21.2705 13.7939 20.0547 15.2789C20.8884 15.9829 21.4211 17.006 21.4211 18.1499C21.4211 20.2729 19.6031 22 17.3684 22C15.3305 22 13.64 20.5699 13.3621 18.7H10.9537C10.6758 20.5699 8.98529 22 6.94739 22C4.71265 22 2.89471 20.2729 2.89471 18.1499C2.89471 16.687 3.75159 15.411 5.02527 14.762C4.75897 14.377 2.57056 9.8999 2.57056 9.8999H0V7.69995H4.04108L5.14105 9.8999H22ZM6.94733 19.8C5.98633 19.8 5.21051 19.063 5.21051 18.15C5.21051 17.2371 5.98633 16.5 6.94733 16.5C7.90839 16.5 8.6842 17.2371 8.6842 18.15C8.6842 19.063 7.90839 19.8 6.94733 19.8ZM15.6316 18.15C15.6316 19.063 16.4074 19.8 17.3684 19.8C18.3295 19.8 19.1053 19.063 19.1053 18.15C19.1053 17.2371 18.3295 16.5 17.3684 16.5C16.4074 16.5 15.6316 17.2371 15.6316 18.15Z" fill="#A0B0B9"/>
</g>
</svg>
